<svg width="57" height="57" viewBox="0 0 57 57" fill="none" xmlns="http://www.w3.org/2000/svg">
<circle cx="28.5" cy="28.5" r="28.5" fill="#151845"/>
<path d="M41.6351 24.4871C40.3153 18.2889 34.5239 15 29.6646 15C29.6014 15 29.5382 15 29.4755 15H29.4597C29.1748 15.029 28.8894 15.0527 28.6034 15.077C27.9862 15.1297 27.3479 15.1824 26.7249 15.2878C23.1169 15.9044 19.8386 17.562 16.9779 20.2179C16.1258 21.0012 15.3499 21.8637 14.6607 22.7937C14.3763 23.1821 14.3194 23.6111 14.5053 23.9701C14.7081 24.3638 15.1568 24.5952 15.7066 24.5851C16.0816 24.5793 16.4592 24.4945 16.8125 24.4081C20.717 23.4535 23.7262 23.2327 26.578 23.6897C29.9427 24.2283 32.0234 25.9007 32.9403 28.8022C33.531 30.6492 33.7284 32.5996 33.5196 34.5276C33.3432 36.1447 33.0493 37.7791 32.7654 39.3603C32.6903 39.7766 32.6161 40.193 32.5427 40.6094C32.4284 41.2624 32.2988 42.003 32.9735 42.5474C33.1293 42.6671 33.3217 42.7293 33.518 42.7234C33.9667 42.7234 34.5213 42.471 34.9968 42.0156C36.3371 40.7322 38.0402 38.985 39.3179 36.8546C41.7762 32.7535 42.534 28.7089 41.6351 24.4871Z" fill="white"/>
<path d="M31.1586 30.9884C30.3271 27.0839 26.6785 25.0105 23.6172 25.0105H23.4982H23.4876C23.3086 25.0284 23.1285 25.0437 22.9484 25.0584C22.5597 25.0911 22.1584 25.1249 21.765 25.1918C19.492 25.5797 17.4266 26.6238 15.6255 28.2957C15.0884 28.7897 14.5996 29.3338 14.1656 29.9206C13.9866 30.1651 13.9508 30.4355 14.0677 30.6616C14.1956 30.9094 14.4779 31.0554 14.8244 31.049C15.0603 31.0379 15.2942 31.0004 15.5217 30.9373C17.9785 30.3375 19.8744 30.1989 21.6723 30.4867C23.792 30.8261 25.1034 31.8797 25.6806 33.7075C26.0529 34.8712 26.1772 36.1 26.0455 37.3147C25.9344 38.3335 25.749 39.3634 25.5715 40.359C25.5247 40.6226 25.4773 40.8861 25.4315 41.1465C25.3593 41.5576 25.2777 42.024 25.7027 42.3672C25.8013 42.4421 25.9228 42.4806 26.0466 42.4763C26.3288 42.4763 26.6785 42.3181 26.9777 42.0304C27.8203 41.2218 28.8951 40.1213 29.7004 38.7789C31.2497 36.1968 31.7237 33.6485 31.1586 30.9884Z" fill="white"/>
</svg>
